/* XPM */
static const char * mup32_xpm[] = {
/* width height ncolors chars_per_pixel */
"32 32 4 1",
/* colors */
" 	c None",
".	c white",
"X	c #FF2222",
"o	c #FF9999",
/* pixels */
"      ......                    ",
"    .........                   ",
"   ...XXXXo..                   ",
"  ..XXXXXXXo..                  ",
" ..XXXXXXXXXo..         .....   ",
" ..XXXXXXXXXo..       ......... ",
"..XXXXXXXXXX..       ...XXXXo.. ",
"..XXXXXXXXXo..      ..XXXXXXXo..",
"..XXoXXXXXX..      ..XXXXXXXXXo.",
"..XX.oXXXX..       ..XXXXXXXXXo.",
"..XX.......       ..XXXXXXXXXX..",
"..XX......        ..XXXXXXXXXo..",
"..XX..            ..XXoXXXXXX.. ",
"..XX..            ..XX.oXXXX..  ",
"..XX..            ..XX.......   ",
"..XX..            ..XX......    ",
"..XX..            ..XX..        ",
"..XX..            ..XX..        ",
"..XX..            ..XX..        ",
"..XX..            ..XX..        ",
"..XX..            ..XX..        ",
"..XX....          ..XX..        ",
"..XX.........     ..XX..        ",
"..XXXXXo............XX..        ",
"..XXXXXXXXXXo.......XX..        ",
"..XXXXXXXXXXXXXXXo..XX..        ",
"..XXXXXXXXXXXXXXXXXXXX..        ",
"..XXXXXXXXXXXXXXXXXXXX..        ",
".......oXXXXXXXXXXXXXX..        ",
"............oXXXXXXXXX..        ",
"       .................        ",
"            ............        "};
