/* XPM */
static char * mup48_xpm[] = {
/* width height ncolors chars_per_pixel */
"48 48 4 1",
/* colors */
" 	c None",
".	c white",
"X	c #FF9999",
"o	c #FF2222",
/* pixels */
"        .........                               ",
"       ...........                              ",
"      .............                             ",
"     ..XooooooooX...                            ",
"    ..XooooooooooX....                          ",
"   ..XooooooooooooX...                          ",
"  ..Xoooooooooooooo...             ..........   ",
" ...ooooooooooooooo...            ...........   ",
" ...ooooooooooooooo...           .............. ",
"...oooooooooooooooo...          ..XooooooooX... ",
"...oooooooooooooooX..          ..XooooooooooX...",
"...ooooooooooooooX..          ..XooooooooooooX..",
"...oooXoooooooooX..          ..Xoooooooooooooo..",
"...ooo.XooooooX...          ...ooooooooooooooo..",
"...ooo...........           ...ooooooooooooooo..",
"...ooo..........           ...oooooooooooooooo..",
"...ooo.........            ...oooooooooooooooX..",
"...ooo...                  ...ooooooooooooooX.. ",
"...ooo...                  ...oooXoooooooooX..  ",
"...ooo...                  ...ooo.XoooooooX..   ",
"...ooo...                  ...ooo...........    ",
"...ooo...                  ...ooo..........     ",
"...ooo...                  ...ooo.........      ",
"...ooo...                  ...ooo...            ",
"...ooo...                  ...ooo...            ",
"...ooo...                  ...ooo...            ",
"...ooo...                  ...ooo...            ",
"...ooo...                  ...ooo...            ",
"...ooo...                  ...ooo...            ",
"...ooo...                  ...ooo...            ",
"...ooo...                  ...ooo...            ",
"...ooo...                  ...ooo...            ",
"...ooo....                 ...ooo...            ",
"...ooo.........            ...ooo...            ",
"...ooo...............      ...ooo...            ",
"...oooooooooX.................ooo...            ",
"...oooooooooooooooX...........ooo...            ",
"...ooooooooooooooooooooX......ooo...            ",
"...ooooooooooooooooooooooooooXooo...            ",
"...oooooooooooooooooooooooooooooo...            ",
"...oooooooooooooooooooooooooooooo...            ",
"...oooooooooooooooooooooooooooooo...            ",
"............Xoooooooooooooooooooo...            ",
"..................Xoooooooooooooo...            ",
".......................Xooooooooo...            ",
"           .........................            ",
"                 ...................            ",
"                     ...............            "};
